<mxfile host="app.diagrams.net" modified="2023-05-14T00:46:33.094Z" agent="Mozilla/5.0 (Macintosh; Intel Mac OS X 10_15_7) AppleWebKit/537.36 (KHTML, like Gecko) Chrome/112.0.0.0 Safari/537.36" etag="gfQMC71hTlR67zeTz_6U" version="21.2.9" type="github">
  <diagram name="Page-1" id="Y6EN3my6nN-xNNiNjMTZ">
    <mxGraphModel dx="763" dy="473" grid="1" gridSize="10" guides="1" tooltips="1" connect="1" arrows="1" fold="1" page="1" pageScale="1" pageWidth="850" pageHeight="1100" math="0" shadow="0">
      <root>
        <mxCell id="0" />
        <mxCell id="1" parent="0" />
        <mxCell id="rxa_-6LEG4aGoYR-cblY-1" value="" style="rounded=0;whiteSpace=wrap;html=1;fillColor=#dae8fc;strokeColor=#6c8ebf;" vertex="1" parent="1">
          <mxGeometry x="320" y="190" width="380" height="80" as="geometry" />
        </mxCell>
        <mxCell id="rxa_-6LEG4aGoYR-cblY-2" value="" style="rounded=0;whiteSpace=wrap;html=1;fillColor=#d5e8d4;strokeColor=#82b366;opacity=50;" vertex="1" parent="1">
          <mxGeometry x="50" y="210" width="370" height="80" as="geometry" />
        </mxCell>
        <mxCell id="rxa_-6LEG4aGoYR-cblY-3" value="processor" style="rounded=0;whiteSpace=wrap;html=1;fillColor=#60a917;fontColor=#ffffff;strokeColor=#2D7600;" vertex="1" parent="1">
          <mxGeometry x="200" y="240" width="80" height="40" as="geometry" />
        </mxCell>
        <mxCell id="rxa_-6LEG4aGoYR-cblY-4" style="edgeStyle=orthogonalEdgeStyle;rounded=0;orthogonalLoop=1;jettySize=auto;html=1;exitX=1;exitY=0.5;exitDx=0;exitDy=0;entryX=0;entryY=0.5;entryDx=0;entryDy=0;" edge="1" parent="1" source="rxa_-6LEG4aGoYR-cblY-3" target="rxa_-6LEG4aGoYR-cblY-18">
          <mxGeometry relative="1" as="geometry">
            <Array as="points">
              <mxPoint x="290" y="260" />
              <mxPoint x="290" y="240" />
            </Array>
            <mxPoint x="270" y="260" as="sourcePoint" />
            <mxPoint x="330" y="260" as="targetPoint" />
          </mxGeometry>
        </mxCell>
        <mxCell id="rxa_-6LEG4aGoYR-cblY-7" style="edgeStyle=orthogonalEdgeStyle;rounded=0;orthogonalLoop=1;jettySize=auto;html=1;exitX=1;exitY=0.5;exitDx=0;exitDy=0;entryX=0;entryY=0.5;entryDx=0;entryDy=0;" edge="1" parent="1" source="rxa_-6LEG4aGoYR-cblY-9" target="rxa_-6LEG4aGoYR-cblY-3">
          <mxGeometry relative="1" as="geometry">
            <Array as="points">
              <mxPoint x="180" y="260" />
            </Array>
          </mxGeometry>
        </mxCell>
        <mxCell id="rxa_-6LEG4aGoYR-cblY-8" value="span&lt;br&gt;data" style="edgeLabel;html=1;align=center;verticalAlign=middle;resizable=0;points=[];" vertex="1" connectable="0" parent="rxa_-6LEG4aGoYR-cblY-7">
          <mxGeometry x="-0.398" relative="1" as="geometry">
            <mxPoint x="12" y="-4" as="offset" />
          </mxGeometry>
        </mxCell>
        <mxCell id="rxa_-6LEG4aGoYR-cblY-9" value="receiver&amp;nbsp;" style="rounded=0;whiteSpace=wrap;html=1;fillColor=#60a917;fontColor=#ffffff;strokeColor=#2D7600;" vertex="1" parent="1">
          <mxGeometry x="60" y="240" width="80" height="40" as="geometry" />
        </mxCell>
        <mxCell id="rxa_-6LEG4aGoYR-cblY-11" value="span&lt;br&gt;data" style="edgeLabel;html=1;align=center;verticalAlign=middle;resizable=0;points=[];" vertex="1" connectable="0" parent="1">
          <mxGeometry x="300.00181818181824" y="240" as="geometry" />
        </mxCell>
        <mxCell id="rxa_-6LEG4aGoYR-cblY-12" value="processor" style="rounded=0;whiteSpace=wrap;html=1;fillColor=#1ba1e2;fontColor=#ffffff;strokeColor=#006EAF;" vertex="1" parent="1">
          <mxGeometry x="470" y="220" width="80" height="40" as="geometry" />
        </mxCell>
        <mxCell id="rxa_-6LEG4aGoYR-cblY-13" style="edgeStyle=orthogonalEdgeStyle;rounded=0;orthogonalLoop=1;jettySize=auto;html=1;exitX=1;exitY=0.5;exitDx=0;exitDy=0;entryX=0;entryY=0.5;entryDx=0;entryDy=0;" edge="1" parent="1" target="rxa_-6LEG4aGoYR-cblY-19">
          <mxGeometry relative="1" as="geometry">
            <Array as="points">
              <mxPoint x="590" y="240" />
              <mxPoint x="590" y="240" />
            </Array>
            <mxPoint x="550" y="240" as="sourcePoint" />
          </mxGeometry>
        </mxCell>
        <mxCell id="rxa_-6LEG4aGoYR-cblY-16" style="edgeStyle=orthogonalEdgeStyle;rounded=0;orthogonalLoop=1;jettySize=auto;html=1;exitX=1;exitY=0.5;exitDx=0;exitDy=0;entryX=0;entryY=0.5;entryDx=0;entryDy=0;" edge="1" parent="1" source="rxa_-6LEG4aGoYR-cblY-18" target="rxa_-6LEG4aGoYR-cblY-12">
          <mxGeometry relative="1" as="geometry">
            <Array as="points">
              <mxPoint x="410" y="240" />
            </Array>
          </mxGeometry>
        </mxCell>
        <mxCell id="rxa_-6LEG4aGoYR-cblY-17" value="metric&lt;br&gt;data" style="edgeLabel;html=1;align=center;verticalAlign=middle;resizable=0;points=[];" vertex="1" connectable="0" parent="rxa_-6LEG4aGoYR-cblY-16">
          <mxGeometry x="-0.398" relative="1" as="geometry">
            <mxPoint x="12" y="-4" as="offset" />
          </mxGeometry>
        </mxCell>
        <mxCell id="rxa_-6LEG4aGoYR-cblY-18" value="connector" style="rounded=0;whiteSpace=wrap;html=1;fillColor=#1ba1e2;fontColor=#ffffff;strokeColor=#006EAF;" vertex="1" parent="1">
          <mxGeometry x="330" y="220" width="80" height="40" as="geometry" />
        </mxCell>
        <mxCell id="rxa_-6LEG4aGoYR-cblY-19" value="exporter" style="rounded=0;whiteSpace=wrap;html=1;fillColor=#1ba1e2;fontColor=#ffffff;strokeColor=#006EAF;" vertex="1" parent="1">
          <mxGeometry x="610" y="220" width="80" height="40" as="geometry" />
        </mxCell>
        <mxCell id="rxa_-6LEG4aGoYR-cblY-20" value="metric&lt;br&gt;data" style="edgeLabel;html=1;align=center;verticalAlign=middle;resizable=0;points=[];" vertex="1" connectable="0" parent="1">
          <mxGeometry x="580.0018181818182" y="236" as="geometry" />
        </mxCell>
        <mxCell id="rxa_-6LEG4aGoYR-cblY-21" value="trace pipeline" style="text;html=1;strokeColor=none;fillColor=none;align=left;verticalAlign=middle;whiteSpace=wrap;rounded=0;" vertex="1" parent="1">
          <mxGeometry x="50" y="210" width="100" height="20" as="geometry" />
        </mxCell>
        <mxCell id="rxa_-6LEG4aGoYR-cblY-22" value="metric pipeline" style="text;html=1;strokeColor=none;fillColor=none;align=left;verticalAlign=middle;whiteSpace=wrap;rounded=0;" vertex="1" parent="1">
          <mxGeometry x="320" y="190" width="100" height="20" as="geometry" />
        </mxCell>
      </root>
    </mxGraphModel>
  </diagram>
</mxfile>
